<svg width="1115" height="222" viewBox="0 0 1115 222" fill="none" xmlns="http://www.w3.org/2000/svg">
<g clip-path="url(#clip0_115_9)">
<rect width="10" height="222" transform="translate(420)" fill="#FE2C35"/>
<path d="M482.263 150.727V222H467.195V150.727H482.263ZM554.276 150.727V222H541.26L510.252 177.141H509.73V222H494.661V150.727H507.886L538.65 195.551H539.276V150.727H554.276ZM586.693 163.151V150.727H645.229V163.151H623.408V222H608.513V163.151H586.693ZM658.444 222H642.297L666.901 150.727H686.32L710.89 222H694.742L676.889 167.014H676.332L658.444 222ZM657.435 193.985H695.577V205.748H657.435V193.985ZM756.505 171.225C756.227 168.418 755.032 166.237 752.921 164.683C750.809 163.128 747.944 162.351 744.325 162.351C741.865 162.351 739.789 162.699 738.095 163.395C736.402 164.068 735.102 165.007 734.198 166.214C733.316 167.42 732.875 168.789 732.875 170.32C732.829 171.596 733.096 172.71 733.676 173.661C734.279 174.612 735.102 175.436 736.146 176.132C737.191 176.805 738.397 177.397 739.766 177.907C741.135 178.394 742.596 178.812 744.151 179.16L750.554 180.691C753.663 181.387 756.517 182.315 759.115 183.475C761.714 184.635 763.964 186.062 765.867 187.756C767.769 189.449 769.242 191.445 770.286 193.741C771.354 196.038 771.899 198.672 771.922 201.641C771.899 206.003 770.785 209.785 768.581 212.987C766.4 216.165 763.245 218.636 759.115 220.399C755.009 222.139 750.055 223.009 744.255 223.009C738.501 223.009 733.49 222.128 729.221 220.364C724.975 218.601 721.658 215.991 719.268 212.534C716.901 209.054 715.66 204.75 715.544 199.623H730.126C730.288 202.013 730.973 204.008 732.179 205.609C733.409 207.186 735.044 208.381 737.086 209.193C739.151 209.982 741.483 210.376 744.081 210.376C746.633 210.376 748.849 210.005 750.728 209.263C752.631 208.52 754.104 207.488 755.148 206.165C756.192 204.843 756.714 203.323 756.714 201.607C756.714 200.006 756.238 198.66 755.287 197.57C754.359 196.479 752.99 195.551 751.181 194.786C749.394 194.02 747.202 193.324 744.603 192.697L736.843 190.749C730.834 189.287 726.089 187.002 722.609 183.893C719.129 180.784 717.4 176.596 717.423 171.33C717.4 167.014 718.549 163.244 720.869 160.019C723.212 156.794 726.425 154.277 730.509 152.467C734.592 150.658 739.232 149.753 744.429 149.753C749.719 149.753 754.336 150.658 758.28 152.467C762.247 154.277 765.333 156.794 767.537 160.019C769.741 163.244 770.878 166.979 770.948 171.225H756.505ZM782.058 222V150.727H797.127V180.134H827.717V150.727H842.751V222H827.717V192.558H797.127V222H782.058ZM855.175 222V150.727H870.244V182.153H871.184L896.832 150.727H914.894L888.445 182.64L915.207 222H897.18L877.657 192.697L870.244 201.746V222H855.175ZM922.741 222V150.727H970.767V163.151H937.81V180.134H968.296V192.558H937.81V209.576H970.906V222H922.741ZM1042.36 150.727V222H1029.35L998.338 177.141H997.816V222H982.747V150.727H995.972L1026.74 195.551H1027.36V150.727H1042.36ZM1052.1 163.151V150.727H1110.63V163.151H1088.81V222H1073.92V163.151H1052.1Z" fill="white"/>
<path d="M469.217 95V0.454543H506.518C513.659 0.454543 519.752 1.73177 524.8 4.28622C529.878 6.80989 533.74 10.3954 536.387 15.0426C539.065 19.6591 540.403 25.0911 540.403 31.3388C540.403 37.6172 539.049 43.0185 536.341 47.5426C533.633 52.036 529.709 55.483 524.569 57.8835C519.46 60.2841 513.274 61.4844 506.011 61.4844H481.036V45.419H502.779C506.595 45.419 509.765 44.8958 512.289 43.8494C514.813 42.803 516.69 41.2334 517.921 39.1406C519.183 37.0478 519.814 34.4472 519.814 31.3388C519.814 28.1996 519.183 25.5528 517.921 23.3984C516.69 21.2441 514.797 19.6129 512.243 18.505C509.719 17.3662 506.534 16.7969 502.687 16.7969H489.207V95H469.217ZM520.276 51.9744L543.773 95H521.707L498.717 51.9744H520.276ZM554.53 95V0.454543H618.237V16.9354H574.519V39.4638H614.96V55.9446H574.519V78.5192H618.422V95H554.53ZM713.21 0.454543V95H695.944L654.811 35.4936H654.119V95H634.129V0.454543H651.672L692.482 59.9148H693.313V0.454543H713.21ZM726.124 16.9354V0.454543H803.773V16.9354H774.828V95H755.07V16.9354H726.124ZM930.069 33.5547H909.849C909.479 30.9387 908.725 28.6151 907.586 26.5838C906.448 24.5218 904.986 22.7675 903.201 21.321C901.416 19.8745 899.354 18.7666 897.015 17.9972C894.706 17.2277 892.198 16.843 889.49 16.843C884.596 16.843 880.334 18.0587 876.702 20.4901C873.071 22.8906 870.255 26.3991 868.254 31.0156C866.254 35.6013 865.253 41.1719 865.253 47.7273C865.253 54.4673 866.254 60.1302 868.254 64.7159C870.285 69.3016 873.117 72.764 876.748 75.103C880.38 77.442 884.581 78.6115 889.351 78.6115C892.029 78.6115 894.506 78.2576 896.784 77.5497C899.092 76.8419 901.139 75.8108 902.924 74.4567C904.709 73.0717 906.186 71.3944 907.356 69.4247C908.556 67.455 909.387 65.2083 909.849 62.6847L930.069 62.777C929.546 67.1165 928.238 71.3021 926.145 75.3338C924.083 79.3348 921.297 82.9202 917.789 86.0902C914.311 89.2294 910.156 91.7223 905.324 93.5689C900.523 95.3847 895.091 96.2926 889.028 96.2926C880.595 96.2926 873.055 94.3845 866.407 90.5682C859.791 86.7519 854.559 81.2275 850.711 73.995C846.895 66.7625 844.987 58.0066 844.987 47.7273C844.987 37.4171 846.926 28.6458 850.804 21.4134C854.682 14.1809 859.944 8.67187 866.592 4.88636C873.24 1.07007 880.719 -0.838072 889.028 -0.838072C894.506 -0.838072 899.585 -0.0686586 904.263 1.47017C908.971 3.00899 913.142 5.25568 916.773 8.21022C920.405 11.134 923.359 14.7195 925.637 18.9666C927.945 23.2138 929.422 28.0765 930.069 33.5547ZM958.922 95H937.501L970.14 0.454543H995.9L1028.49 95H1007.07L983.389 22.0597H982.65L958.922 95ZM957.583 57.8374H1008.18V73.441H957.583V57.8374ZM1039.87 95V0.454543H1077.17C1084.31 0.454543 1090.41 1.73177 1095.45 4.28622C1100.53 6.80989 1104.39 10.3954 1107.04 15.0426C1109.72 19.6591 1111.06 25.0911 1111.06 31.3388C1111.06 37.6172 1109.7 43.0185 1107 47.5426C1104.29 52.036 1100.36 55.483 1095.22 57.8835C1090.11 60.2841 1083.93 61.4844 1076.66 61.4844H1051.69V45.419H1073.43C1077.25 45.419 1080.42 44.8958 1082.94 43.8494C1085.47 42.803 1087.34 41.2334 1088.58 39.1406C1089.84 37.0478 1090.47 34.4472 1090.47 31.3388C1090.47 28.1996 1089.84 25.5528 1088.58 23.3984C1087.34 21.2441 1085.45 19.6129 1082.9 18.505C1080.37 17.3662 1077.19 16.7969 1073.34 16.7969H1059.86V95H1039.87ZM1090.93 51.9744L1114.43 95H1092.36L1069.37 51.9744H1090.93Z" fill="#FE2C35"/>
<path d="M19.3423 222V-0.545461H169.3V38.2479H66.3942V91.2763H161.585V130.07H66.3942V183.207H169.734V222H19.3423ZM327.434 63.4581C326.565 54.6925 322.834 47.8828 316.242 43.0291C309.649 38.1754 300.703 35.7486 289.401 35.7486C281.722 35.7486 275.239 36.8352 269.95 39.0085C264.662 41.1094 260.605 44.0433 257.78 47.8104C255.027 51.5774 253.651 55.8516 253.651 60.6328C253.506 64.6172 254.339 68.0945 256.15 71.0646C258.034 74.0348 260.605 76.6065 263.865 78.7798C267.125 80.8807 270.892 82.728 275.166 84.3217C279.441 85.843 284.004 87.147 288.858 88.2337L308.852 93.0149C318.56 95.1882 327.47 98.0859 335.584 101.708C343.698 105.33 350.725 109.786 356.665 115.074C362.605 120.362 367.205 126.592 370.465 133.764C373.798 140.936 375.5 149.158 375.573 158.431C375.5 172.05 372.023 183.859 365.141 193.856C358.331 203.781 348.479 211.496 335.584 217.001C322.762 222.435 307.295 225.151 289.184 225.151C271.218 225.151 255.57 222.398 242.241 216.893C228.984 211.387 218.624 203.237 211.163 192.443C203.774 181.577 199.898 168.138 199.536 152.129H245.066C245.573 159.59 247.71 165.82 251.477 170.819C255.317 175.745 260.424 179.476 266.799 182.011C273.247 184.474 280.527 185.706 288.641 185.706C296.61 185.706 303.528 184.547 309.396 182.229C315.336 179.911 319.936 176.687 323.196 172.558C326.456 168.428 328.086 163.683 328.086 158.322C328.086 153.324 326.601 149.122 323.631 145.717C320.733 142.312 316.459 139.415 310.808 137.024C305.23 134.634 298.384 132.46 290.271 130.504L266.039 124.419C247.276 119.855 232.461 112.719 221.595 103.012C210.728 93.3047 205.331 80.2287 205.404 63.7841C205.331 50.3096 208.917 38.5376 216.161 28.468C223.478 18.3984 233.512 10.5383 246.262 4.88778C259.012 -0.762791 273.5 -3.58808 289.727 -3.58808C306.245 -3.58808 320.661 -0.762791 332.976 4.88778C345.364 10.5383 354.999 18.3984 361.881 28.468C368.763 38.5376 372.313 50.201 372.53 63.4581H327.434Z" fill="#FE2C35"/>
</g>
<defs>
<clipPath id="clip0_115_9">
<rect width="1115" height="222" fill="white"/>
</clipPath>
</defs>
</svg>
